<svg width="64" height="64" viewBox="0 0 64 64" fill="none" xmlns="http://www.w3.org/2000/svg">
  <rect width="64" height="64" rx="14" fill="#10100F"/>
  <rect x="5" y="5" width="54" height="54" rx="11" fill="#1C1A17" stroke="#D9A441" stroke-width="2"/>
  <path d="M15 46L25.6 17.8H31.5L42.1 46H35.9L33.8 39.8H23.1L21 46H15ZM24.8 34.6H32.1L28.5 23.9L24.8 34.6Z" fill="#F6F0E5"/>
  <path d="M42.6 46V18H52.1C55 18 57.2 18.7 58.7 20.2C60.2 21.6 61 23.5 61 25.8C61 27.2 60.7 28.5 60 29.5C59.3 30.5 58.3 31.3 57 31.8C58.5 32.2 59.7 33 60.6 34.2C61.5 35.3 61.9 36.8 61.9 38.5C61.9 40.8 61.1 42.6 59.6 44C58 45.3 55.8 46 52.9 46H42.6ZM48.3 29.7H51.7C52.9 29.7 53.8 29.4 54.4 28.8C55 28.2 55.3 27.4 55.3 26.3C55.3 25.3 55 24.5 54.4 23.9C53.8 23.3 52.9 23 51.7 23H48.3V29.7ZM48.3 41H52.4C53.6 41 54.5 40.7 55.2 40.1C55.8 39.5 56.2 38.7 56.2 37.7C56.2 36.6 55.8 35.8 55.2 35.2C54.5 34.6 53.6 34.3 52.4 34.3H48.3V41Z" fill="#D9A441"/>
</svg>
